<svg xmlns="http://www.w3.org/2000/svg" viewBox="0 0 64 64" id="Briefcase"><linearGradient id="a" x1="1145.857" x2="1206.399" y1="702.38" y2="702.38" gradientTransform="rotate(-90 267.263 940.865)" gradientUnits="userSpaceOnUse"><stop offset="0" stop-color="#f62b1e" class="stopColorf6921e svgShape"></stop><stop offset=".388" stop-color="#9ae45f" class="stopColorf9bb73 svgShape"></stop><stop offset="1" stop-color="#ffffff" class="stopColorffffff svgShape"></stop></linearGradient><path fill="url(#a)" d="M13.28 49.58c-3.94-.9-7.2-2.97-9.68-6.4-4.58-6.33-4.81-14.93-.61-21.52.99-1.55 2.15-3.03 3.47-4.47 1.14-1.25 2-2.72 2.6-4.3C12.8 2.87 19.55-.58 29.65 3.26c1.48.57 3.07.83 4.65.74 15.87-.95 21.81 6.68 20.2 20.82-.15 1.28.05 2.57.57 3.76 4.76 10.88 2.92 19.39-7.71 24.75-.65.33-1.26.75-1.79 1.26-11.66 11.28-21.32 9.97-29.16-2.79a4.888 4.888 0 0 0-3.13-2.22z"></path><path fill="#d85b53" d="M50.86 7.45 49.6 5.74l-1.99-.77 1.71-1.26.77-1.98 1.26 1.71 1.98.76-1.71 1.26z" class="coloref4d42 svgShape"></path><path fill="#26d7fe" d="m61.53 39.57-1.26-1.71-1.99-.76 1.71-1.26.76-1.99 1.26 1.72 1.99.76-1.71 1.26z" class="color69cdf5 svgShape"></path><path fill="#d85b53" d="m4.22 53.04-1.26-1.71-1.99-.76 1.72-1.26.76-1.99 1.26 1.72 1.98.76-1.71 1.26z" class="coloref4d42 svgShape"></path><path fill="#26d7fe" d="m6.78 13.6-1.26-1.71-1.99-.77 1.71-1.26L6 7.88l1.26 1.71 1.99.76-1.71 1.26z" class="color69cdf5 svgShape"></path><path fill="#d45985" d="M46.43 19.15h-6.35V16.1a2.97 2.97 0 0 0-2.97-2.97H24.26c-1.63 0-2.97 1.33-2.97 2.97v3.05h-6.34a5.62 5.62 0 0 0-5.61 5.61V41.1a5.62 5.62 0 0 0 5.61 5.61h31.48c3.09 0 5.61-2.51 5.61-5.61V24.76a5.62 5.62 0 0 0-5.61-5.61zm-22.05-2.93h12.6v2.93h-12.6v-2.93zM48.94 41.1c0 1.39-1.13 2.51-2.51 2.51H14.95a2.52 2.52 0 0 1-2.52-2.51V24.76c0-1.39 1.13-2.51 2.52-2.51h31.48c1.39 0 2.51 1.13 2.51 2.51V41.1z" class="color384a9e svgShape"></path><path fill="#f6584e" d="M48.94 24.76V41.1c0 1.39-1.13 2.51-2.51 2.51H14.95a2.52 2.52 0 0 1-2.52-2.51V24.76c0-1.39 1.13-2.51 2.52-2.51h31.48a2.499 2.499 0 0 1 2.51 2.51z" class="colorf6b64e svgShape"></path></svg>